<svg width="157" height="311" viewBox="0 0 157 311" fill="none" xmlns="http://www.w3.org/2000/svg">
<g filter="url(#filter0_d_54_18)">
<path d="M26.952 61.048H59.464V69.88H26.952V61.048ZM21.832 26.744H65.352V74.744H56.136V35.704H21.832V26.744ZM21.832 61.048H31.176V101.88C31.176 105.976 32.072 106.616 37.448 106.616C39.88 106.616 52.296 106.616 55.496 106.616C60.104 106.616 60.872 104.568 61.384 91.512C63.432 93.176 67.4 94.712 70.088 95.352C68.936 111.608 66.248 115.704 56.264 115.704C53.704 115.704 38.856 115.704 36.424 115.704C25.032 115.704 21.832 112.888 21.832 102.008V61.048ZM83.4 39.032H136.136V48.12H83.4V39.032ZM86.728 15.608L96.712 17.272C91.72 40.44 83.4 61.688 72.264 75.512C70.344 73.848 66.12 70.904 63.688 69.496C74.952 56.824 82.632 36.856 86.728 15.608ZM116.68 42.616L126.408 43.768C119.24 91.512 102.856 118.136 64.84 133.752C63.816 131.576 60.872 127.352 58.952 125.176C95.56 111.992 110.536 86.904 116.68 42.616ZM87.24 47.224C94.152 83.576 109.128 112.888 137.672 124.92C135.496 126.84 132.424 130.552 130.888 133.24C101.192 119.288 86.216 88.824 78.408 48.888L87.24 47.224ZM41.928 275.208H112.456V282.888H41.928V275.208ZM37.448 252.296H117.32V286.856H107.464V259.976H46.792V287.24H37.448V252.296ZM26.952 183.688H127.176V191.24H26.952V183.688ZM23.496 215.816H131.144V223.368H23.496V215.816ZM34.76 199.816H119.24V206.984H34.76V199.816ZM19.656 237.064H134.472V244.744H19.656V237.064ZM71.752 187.016H81.608V240.392H71.752V187.016ZM44.616 172.168L53.192 169.608C56.776 173.704 60.232 179.464 61.896 183.304L52.808 186.376C51.528 182.536 47.944 176.52 44.616 172.168ZM38.984 225.288L47.56 222.856C50.888 226.696 54.088 231.944 55.496 235.528L46.28 238.344C45.128 234.632 41.928 229.128 38.984 225.288ZM99.528 169.352L109.384 171.528C106.312 176.904 102.728 182.28 99.912 185.864L91.464 183.816C94.152 179.72 97.736 173.576 99.528 169.352ZM105.416 222.984L115.016 225.032C112.072 229.896 109 234.632 106.184 237.832L97.608 235.912C100.168 232.328 103.624 226.696 105.416 222.984Z" fill="#D9D9D9"/>
</g>
<defs>
<filter id="filter0_d_54_18" x="0.456005" y="0.40797" width="156.416" height="310.032" filterUnits="userSpaceOnUse" color-interpolation-filters="sRGB">
<feFlood flood-opacity="0" result="BackgroundImageFix"/>
<feColorMatrix in="SourceAlpha" type="matrix" values="0 0 0 0 0 0 0 0 0 0 0 0 0 0 0 0 0 0 127 0" result="hardAlpha"/>
<feOffset dy="4"/>
<feGaussianBlur stdDeviation="9.6"/>
<feComposite in2="hardAlpha" operator="out"/>
<feColorMatrix type="matrix" values="0 0 0 0 1 0 0 0 0 1 0 0 0 0 1 0 0 0 0.1 0"/>
<feBlend mode="normal" in2="BackgroundImageFix" result="effect1_dropShadow_54_18"/>
<feBlend mode="normal" in="SourceGraphic" in2="effect1_dropShadow_54_18" result="shape"/>
</filter>
</defs>
</svg>
