<svg width="46" height="982" viewBox="0 0 46 982" fill="none" xmlns="http://www.w3.org/2000/svg">
<path d="M44 998.125V1048L2 1013.88L2 964L44 998.125Z" fill="#FFBB0B" stroke="#FFBB0B" stroke-width="3"/>
<path d="M44 914.125V964L2 929.875L2 880L44 914.125Z" fill="#FFBB0B" stroke="#FFBB0B" stroke-width="3"/>
<path d="M44 830.125V880L2 845.875L2 796L44 830.125Z" fill="#FFBB0B" stroke="#FFBB0B" stroke-width="3"/>
<path d="M44 746.125V796L2 761.875L2 712L44 746.125Z" fill="#FFBB0B" stroke="#FFBB0B" stroke-width="3"/>
<path d="M44 662.125V712L2 677.875L2 628L44 662.125Z" fill="#FFBB0B" stroke="#FFBB0B" stroke-width="3"/>
<path d="M44 578.125V628L2 593.875L2 544L44 578.125Z" fill="#FFBB0B" stroke="#FFBB0B" stroke-width="3"/>
<path d="M44 494.125V544L2 509.875L2 460L44 494.125Z" fill="#FFBB0B" stroke="#FFBB0B" stroke-width="3"/>
<path d="M44 410.125V460L2 425.875L2 376L44 410.125Z" fill="#FFBB0B" stroke="#FFBB0B" stroke-width="3"/>
<path d="M44 326.125V376L2 341.875L2 292L44 326.125Z" fill="#FFBB0B" stroke="#FFBB0B" stroke-width="3"/>
<path d="M44 242.125V292L2 257.875L2 208L44 242.125Z" fill="#FFBB0B" stroke="#FFBB0B" stroke-width="3"/>
<path d="M44 158.125V208L2 173.875L2 124L44 158.125Z" fill="#FFBB0B" stroke="#FFBB0B" stroke-width="3"/>
<path d="M44 74.125V124L2 89.875L2 40L44 74.125Z" fill="#FFBB0B" stroke="#FFBB0B" stroke-width="3"/>
<path d="M44 -9.875V40L2 5.875L2 -44L44 -9.875Z" fill="#FFBB0B" stroke="#FFBB0B" stroke-width="3"/>
</svg>
