<svg width="65" height="950" viewBox="0 0 65 950" fill="none" xmlns="http://www.w3.org/2000/svg">
<g filter="url(#filter0_d_4_275)">
<path d="M53.5 883.125V933L11.5 898.875L11.5 849L53.5 883.125Z" fill="#FFA800" stroke="#FFA800" stroke-width="3"/>
<path d="M53.5 799.125V849L11.5 814.875L11.5 765L53.5 799.125Z" fill="#FFA800" stroke="#FFA800" stroke-width="3"/>
<path d="M53.5 715.125V765L11.5 730.875L11.5 681L53.5 715.125Z" fill="#FFA800" stroke="#FFA800" stroke-width="3"/>
<path d="M53.5 631.125V681L11.5 646.875L11.5 597L53.5 631.125Z" fill="#FFA800" stroke="#FFA800" stroke-width="3"/>
<path d="M53.5 547.125V597L11.5 562.875L11.5 513L53.5 547.125Z" fill="#FFA800" stroke="#FFA800" stroke-width="3"/>
<path d="M53.5 463.125V513L11.5 478.875L11.5 429L53.5 463.125Z" fill="#FFA800" stroke="#FFA800" stroke-width="3"/>
<path d="M53.5 379.125V429L11.5 394.875L11.5 345L53.5 379.125Z" fill="#FFA800" stroke="#FFA800" stroke-width="3"/>
<path d="M53.5 295.125V345L11.5 310.875L11.5 261L53.5 295.125Z" fill="#FFA800" stroke="#FFA800" stroke-width="3"/>
<path d="M53.5 211.125V261L11.5 226.875L11.5 177L53.5 211.125Z" fill="#FFA800" stroke="#FFA800" stroke-width="3"/>
<path d="M53.5 127.125V177L11.5 142.875L11.5 93L53.5 127.125Z" fill="#FFA800" stroke="#FFA800" stroke-width="3"/>
<path d="M53.5 43.125V93L11.5 58.875L11.5 9L53.5 43.125Z" fill="#FFA800" stroke="#FFA800" stroke-width="3"/>
</g>
<defs>
<filter id="filter0_d_4_275" x="0.6" y="0.448542" width="63.8" height="949.103" filterUnits="userSpaceOnUse" color-interpolation-filters="sRGB">
<feFlood flood-opacity="0" result="BackgroundImageFix"/>
<feColorMatrix in="SourceAlpha" type="matrix" values="0 0 0 0 0 0 0 0 0 0 0 0 0 0 0 0 0 0 127 0" result="hardAlpha"/>
<feOffset dy="4"/>
<feGaussianBlur stdDeviation="4.7"/>
<feComposite in2="hardAlpha" operator="out"/>
<feColorMatrix type="matrix" values="0 0 0 0 0 0 0 0 0 0 0 0 0 0 0 0 0 0 1 0"/>
<feBlend mode="normal" in2="BackgroundImageFix" result="effect1_dropShadow_4_275"/>
<feBlend mode="normal" in="SourceGraphic" in2="effect1_dropShadow_4_275" result="shape"/>
</filter>
</defs>
</svg>
