<svg width="75" height="75" viewBox="0 0 75 75" fill="none" xmlns="http://www.w3.org/2000/svg">
<path d="M63.4907 12.9862C58.7104 10.7928 53.5843 9.17686 48.2247 8.25132C48.1271 8.23346 48.0296 8.2781 47.9793 8.36738C47.32 9.53992 46.5898 11.0696 46.0784 12.2719C40.3138 11.4089 34.5787 11.4089 28.9323 12.2719C28.4208 11.0429 27.664 9.53992 27.0018 8.36738C26.9515 8.28108 26.854 8.23644 26.7564 8.25132C21.3997 9.1739 16.2736 10.7899 11.4904 12.9862C11.449 13.0041 11.4135 13.0339 11.39 13.0725C1.66685 27.5987 -0.99672 41.7677 0.309938 55.7612C0.31585 55.8296 0.354281 55.8951 0.407494 55.9367C6.82253 60.6478 13.0366 63.5078 19.1352 65.4035C19.2329 65.4333 19.3363 65.3976 19.3984 65.3172C20.841 63.3471 22.127 61.2699 23.2296 59.0854C23.2947 58.9574 23.2326 58.8056 23.0996 58.755C21.0598 57.9813 19.1175 57.0379 17.2492 55.9665C17.1014 55.8802 17.0895 55.6688 17.2255 55.5676C17.6187 55.273 18.0119 54.9665 18.3874 54.657C18.4553 54.6005 18.5499 54.5885 18.6298 54.6242C30.904 60.2282 44.1923 60.2282 56.3217 54.6242C56.4016 54.5856 56.4962 54.5975 56.5671 54.654C56.9426 54.9635 57.3358 55.273 57.7319 55.5676C57.8679 55.6688 57.859 55.8802 57.7112 55.9665C55.8429 57.0587 53.9006 57.9813 51.8579 58.7521C51.7249 58.8027 51.6657 58.9574 51.7308 59.0854C52.857 61.2668 54.143 63.3441 55.5591 65.3143C55.6182 65.3976 55.7246 65.4333 55.8222 65.4035C61.9504 63.5078 68.1644 60.6478 74.5795 55.9367C74.6357 55.8951 74.6712 55.8326 74.6771 55.7641C76.2409 39.5862 72.0578 25.5333 63.5882 13.0755C63.5675 13.0339 63.5321 13.0041 63.4907 12.9862ZM25.0626 47.2406C21.3672 47.2406 18.3223 43.848 18.3223 39.6815C18.3223 35.515 21.3081 32.1223 25.0626 32.1223C28.8465 32.1223 31.8619 35.5447 31.8027 39.6815C31.8027 43.848 28.8169 47.2406 25.0626 47.2406ZM49.9836 47.2406C46.2883 47.2406 43.2434 43.848 43.2434 39.6815C43.2434 35.515 46.2292 32.1223 49.9836 32.1223C53.7676 32.1223 56.7829 35.5447 56.7239 39.6815C56.7239 43.848 53.7676 47.2406 49.9836 47.2406Z" fill="white"/>
</svg>
