<svg width="51" height="50" viewBox="0 0 51 50" fill="none" xmlns="http://www.w3.org/2000/svg">
<g clip-path="url(#clip0_2_197)">
<path fill-rule="evenodd" clip-rule="evenodd" d="M25.5207 0C11.6849 0 0.5 11.2673 0.5 25.2066C0.5 36.349 7.66655 45.7808 17.6084 49.119C18.8514 49.3699 19.3067 48.5766 19.3067 47.9093C19.3067 47.3249 19.2658 45.3219 19.2658 43.2349C12.3056 44.7375 10.8562 40.2301 10.8562 40.2301C9.73769 37.3088 8.08037 36.5579 8.08037 36.5579C5.80231 35.0138 8.2463 35.0138 8.2463 35.0138C10.7733 35.1808 12.0992 37.6012 12.0992 37.6012C14.3358 41.4403 17.9398 40.3555 19.3897 39.6877C19.5966 38.0601 20.2599 36.9333 20.9641 36.3075C15.4128 35.7231 9.57227 33.5531 9.57227 23.8709C9.57227 21.1165 10.5658 18.8631 12.1402 17.1105C11.8918 16.4846 11.0217 13.8967 12.3891 10.4331C12.3891 10.4331 14.5017 9.76521 19.2653 13.0204C21.3047 12.4687 23.4079 12.188 25.5207 12.1856C27.6333 12.1856 29.7869 12.4781 31.7756 13.0204C36.5396 9.76521 38.6523 10.4331 38.6523 10.4331C40.0197 13.8967 39.1491 16.4846 38.9007 17.1105C40.5165 18.8631 41.4691 21.1165 41.4691 23.8709C41.4691 33.5531 35.6285 35.6811 30.0358 36.3075C30.9475 37.1003 31.7341 38.6024 31.7341 40.9814C31.7341 44.3616 31.6931 47.0745 31.6931 47.9088C31.6931 48.5766 32.149 49.3699 33.3914 49.1195C43.3333 45.7803 50.4999 36.349 50.4999 25.2066C50.5409 11.2673 39.315 0 25.5207 0Z" fill="white"/>
</g>
<defs>
<clipPath id="clip0_2_197">
<rect width="50" height="50" fill="white" transform="translate(0.5)"/>
</clipPath>
</defs>
</svg>
