<svg width="145" height="145" viewBox="0 0 145 145" fill="none" xmlns="http://www.w3.org/2000/svg">
<path fill-rule="evenodd" clip-rule="evenodd" d="M56.25 40H40V72.5H56.25C47.2754 72.5 40 79.7754 40 88.75V105H72.5V88.75C72.5 97.7245 79.7754 105 88.75 105H105V72.5H88.75C97.7245 72.5 105 65.2246 105 56.25V40H72.5V56.25C72.5 47.2754 65.2246 40 56.25 40ZM72.5 72.5H56.25C65.2246 72.5 72.5 79.7754 72.5 88.75V72.5ZM72.5 72.5V56.25C72.5 65.2246 79.7754 72.5 88.75 72.5H72.5Z" fill="white"/>
<path d="M56.5057 48.5455H60.1534V60.7159C60.1534 61.8409 59.9006 62.8182 59.3949 63.6477C58.8949 64.4773 58.1989 65.1165 57.3068 65.5653C56.4148 66.0142 55.3778 66.2386 54.196 66.2386C53.1449 66.2386 52.1903 66.054 51.3324 65.6847C50.4801 65.3097 49.804 64.7415 49.304 63.9801C48.804 63.2131 48.5568 62.25 48.5625 61.0909H52.2358C52.2472 61.5511 52.3409 61.946 52.517 62.2756C52.6989 62.5994 52.946 62.8494 53.2585 63.0256C53.5767 63.196 53.9517 63.2812 54.3835 63.2812C54.8381 63.2812 55.2216 63.1847 55.5341 62.9915C55.8523 62.7926 56.0938 62.5028 56.2585 62.1222C56.4233 61.7415 56.5057 61.2727 56.5057 60.7159V48.5455Z" fill="#1E1E1E"/>
<path d="M89.7045 97H83.517V79.5455H89.7557C91.5114 79.5455 93.0227 79.8949 94.2898 80.5938C95.5568 81.2869 96.5313 82.2841 97.2131 83.5852C97.9006 84.8864 98.2443 86.4432 98.2443 88.2557C98.2443 90.0739 97.9006 91.6364 97.2131 92.9432C96.5313 94.25 95.5511 95.2528 94.2727 95.9517C93 96.6506 91.4773 97 89.7045 97ZM87.2074 93.8381H89.5511C90.642 93.8381 91.5597 93.6449 92.304 93.2585C93.054 92.8665 93.6165 92.2614 93.9915 91.4432C94.3722 90.6193 94.5625 89.5568 94.5625 88.2557C94.5625 86.9659 94.3722 85.9119 93.9915 85.0938C93.6165 84.2756 93.0568 83.6733 92.3125 83.2869C91.5682 82.9006 90.6506 82.7074 89.5597 82.7074H87.2074V93.8381Z" fill="#1E1E1E"/>
</svg>
